<svg xmlns="http://www.w3.org/2000/svg" version="1.1" viewBox="45.05 189.6 427.95 119.14">
<path d="M0 0 C4.8839445 3.48853178 7.5095153 6.11385188 8.59863281 12.16748047 C10.14165572 26.08901618 11.32727181 40.04190029 12.45947266 54.00195312 C12.75357602 57.61922935 13.06259867 61.23507989 13.37462997 64.85084724 C13.61471574 67.66583983 13.84347665 70.48167224 14.0692215 73.29784775 C14.23061733 75.2742962 14.40419663 77.24973777 14.57806396 79.22512817 C15.05687877 85.38088523 15.37239402 90.40418596 13.0625 96.1875 C9.31946266 97.43517911 7.26834033 97.7554119 3.640625 96.046875 C0.70438618 94.18783622 -2.11785693 92.21935405 -4.9375 90.1875 C-6.08126949 89.38173012 -7.22582673 88.57707748 -8.37109375 87.7734375 C-12.87774297 84.59402533 -17.34573492 81.36383188 -21.78125 78.0859375 C-27.30590167 74.00744465 -32.94052324 70.21695109 -38.73950195 66.54711914 C-43.40460191 63.57760482 -47.85548416 60.37220004 -52.30078125 57.08203125 C-55.79722929 54.56976859 -59.4270432 52.30481947 -63.07421875 50.01953125 C-67.86334292 46.95527581 -72.5037121 43.67614151 -77.16455078 40.421875 C-80.28808884 38.24718367 -83.42546789 36.09265966 -86.5625 33.9375 C-87.22378906 33.48294434 -87.88507813 33.02838867 -88.56640625 32.56005859 C-94.71716277 28.33433685 -100.87830643 24.12383325 -107.03881836 19.91235352 C-113.68959853 15.36304704 -120.32010284 10.78522477 -126.9375 6.1875 C-126.2775 4.8675 -125.6175 3.5475 -124.9375 2.1875 C-120.81881117 2.73422861 -118.51169956 3.96312257 -115.25 6.5 C-110.04057976 10.42853257 -104.68914443 14.08400675 -99.25 17.6875 C-98.0276062 18.49828003 -98.0276062 18.49828003 -96.78051758 19.32543945 C-94.83409173 20.61469522 -92.88649049 21.9021258 -90.9375 23.1875 C-90.4425 21.7025 -90.4425 21.7025 -89.9375 20.1875 C-87.4236145 19.12561035 -87.4236145 19.12561035 -84.03173828 18.15039062 C-82.76596954 17.77990601 -81.50020081 17.40942139 -80.19607544 17.02770996 C-78.80006732 16.63277543 -77.4039775 16.23812957 -76.0078125 15.84375 C-74.57796973 15.43030309 -73.14843863 15.01577697 -71.71920776 14.60021973 C-67.94209257 13.50527504 -64.16079159 12.42552548 -60.378479 11.34869385 C-56.56991967 10.26138002 -52.76567288 9.15919734 -48.9609375 8.05859375 C-40.95885517 5.74777282 -32.95253313 3.45304295 -24.9375 1.1875 C-23.87883728 0.88360352 -22.82017456 0.57970703 -21.72943115 0.26660156 C-20.76668274 -0.00506836 -19.80393433 -0.27673828 -18.81201172 -0.55664062 C-17.98966034 -0.79080688 -17.16730896 -1.02497314 -16.32003784 -1.26623535 C-10.62482564 -2.57202493 -5.22384588 -2.8473793 0 0 Z M-18.6953125 6.56640625 C-19.58301331 6.81407242 -20.47071411 7.06173859 -21.38531494 7.31690979 C-24.2785098 8.12511167 -27.17055974 8.93732124 -30.0625 9.75 C-32.03465781 10.30260789 -34.00682578 10.85517949 -35.97900391 11.40771484 C-46.43361309 14.34049708 -56.88446257 17.28639395 -67.3125 20.3125 C-68.24723145 20.58263916 -69.18196289 20.85277832 -70.14501953 21.13110352 C-74.16407526 22.30852241 -78.08594509 23.52324788 -81.9375 25.1875 C-81.9375 26.1775 -81.9375 27.1675 -81.9375 28.1875 C-79.9548783 29.97335023 -78.01384285 31.54839405 -75.875 33.125 C-75.31361328 33.55490234 -74.75222656 33.98480469 -74.17382812 34.42773438 C-72.45480172 35.72240684 -70.70184299 36.95554837 -68.9375 38.1875 C-68.12369873 38.82002686 -68.12369873 38.82002686 -67.29345703 39.46533203 C-64.70311831 41.27606162 -62.88678573 42.21778107 -59.6796875 42.11547852 C-54.12499423 41.09494713 -48.75557773 39.24838091 -43.38696289 37.52075195 C-31.19620189 33.64227769 -18.0707356 29.73223656 -5.6875 35.0625 C-4.43278368 35.76244505 -3.18268401 36.47073442 -1.9375 37.1875 C-0.27912779 37.87453991 1.38605262 38.54582531 3.0625 39.1875 C3.90232687 22.38539397 3.90232687 22.38539397 -1.9375 7.1875 C-8.40093032 3.3622045 -11.75546185 4.61412836 -18.6953125 6.56640625 Z M-18.9375 38.1875 C-18.85374996 43.1379724 -18.6793574 48.07440442 -18.42480469 53.01904297 C-18.35076493 54.69588263 -18.3004053 56.37395905 -18.27539062 58.05224609 C-18.33498768 67.5437716 -18.33498768 67.5437716 -14.53933716 75.9163208 C-10.74237174 79.37964326 -6.43970596 81.75900501 -1.9375 84.1875 C-0.15261586 85.37497999 1.62204655 86.57837101 3.375 87.8125 C5.5435519 89.49155724 5.5435519 89.49155724 8.0625 90.1875 C7.78948054 84.84925106 7.44468152 79.5189882 7.0625 74.1875 C7.01399902 73.45063965 6.96549805 72.7137793 6.91552734 71.95458984 C6.18548791 61.54631332 4.95409196 51.32232282 -2.640625 43.4140625 C-7.48754588 39.63695749 -12.82066067 38.1875 -18.9375 38.1875 Z M-34.35546875 40.9375 C-36.23588867 41.47890625 -36.23588867 41.47890625 -38.15429688 42.03125 C-39.4778895 42.41658109 -40.80145689 42.80199887 -42.125 43.1875 C-43.46018147 43.57328022 -44.7954668 43.95870117 -46.13085938 44.34375 C-49.40078022 45.28813147 -52.66958913 46.236191 -55.9375 47.1875 C-52.57583394 50.6606126 -48.97889029 53.31442057 -44.9375 55.9375 C-43.60282139 56.81503847 -42.26818663 57.69264365 -40.93359375 58.5703125 C-40.2669873 59.00633789 -39.60038086 59.44236328 -38.91357422 59.89160156 C-35.93064204 61.84779183 -32.96587649 63.83054687 -30 65.8125 C-29.02160156 66.46476562 -28.04320312 67.11703125 -27.03515625 67.7890625 C-26.34292969 68.25054687 -25.65070313 68.71203125 -24.9375 69.1875 C-22.76012116 67.4410923 -22.76012116 67.4410923 -22.78637695 65.35913086 C-22.85538208 64.26677124 -22.85538208 64.26677124 -22.92578125 63.15234375 C-22.97283203 62.34216797 -23.01988281 61.53199219 -23.06835938 60.69726562 C-23.12830078 59.84841797 -23.18824219 58.99957031 -23.25 58.125 C-23.29833984 57.30322266 -23.34667969 56.48144531 -23.39648438 55.63476562 C-23.73870313 50.1289423 -24.29204236 44.66561484 -24.9375 39.1875 C-28.39365512 39.1875 -31.0330977 39.9753654 -34.35546875 40.9375 Z " fill="#F8FDFD" transform="translate(189.9375,191.8125)"/>
<path d="M0 0 C2.7890625 1.65234375 2.7890625 1.65234375 5.625 3.9375 C6.65753906 4.75347656 7.69007812 5.56945312 8.75390625 6.41015625 C9.28516113 6.83699707 9.81641602 7.26383789 10.36376953 7.70361328 C13.04596878 9.82872191 15.80847653 11.84444807 18.5625 13.875 C20.39036217 15.22951141 22.20555835 16.60151496 24 18 C24.53141602 18.362146 25.06283203 18.72429199 25.61035156 19.09741211 C27.86406238 22.18300037 27.59897504 25.69343938 27.73046875 29.38671875 C27.770616 30.20372757 27.81076324 31.02073639 27.85212708 31.86250305 C27.97721878 34.47041644 28.08259122 37.07870434 28.1875 39.6875 C28.26888453 41.45644039 28.35155134 43.22532229 28.43554688 44.99414062 C28.63857976 49.32888878 28.82393311 53.66407621 29 58 C37.04368112 56.6442049 44.86127181 54.83468994 52.72460938 52.6796875 C65.07533576 49.44520265 65.07533576 49.44520265 70.27416992 52.20898438 C72.7739237 53.89581218 75.13628827 55.6901216 77.5 57.5625 C78.30308594 58.17158203 79.10617188 58.78066406 79.93359375 59.40820312 C82.32050069 61.23610188 84.66573033 63.10545593 87 65 C87.77867432 65.62535645 88.55734863 66.25071289 89.35961914 66.89501953 C90.45197876 67.80356689 90.45197876 67.80356689 91.56640625 68.73046875 C92.21810791 69.26953857 92.86980957 69.8086084 93.54125977 70.36401367 C95 72 95 72 95.4375 75.75 C93.78492168 79.48626403 92.65087401 79.88496137 88.97436523 81.31640625 C85.79376387 82.4176408 82.57358939 83.30360894 79.3125 84.125 C78.5292334 84.32601318 77.7459668 84.52702637 76.93896484 84.73413086 C75.08163805 85.20865917 73.22348976 85.67997811 71.36474609 86.14892578 C68.88726195 86.77557719 66.41116486 87.40666403 63.93603516 88.04248047 C33.0347357 95.97600986 33.0347357 95.97600986 19.8125 98.75 C19.02568848 98.93119385 18.23887695 99.1123877 17.42822266 99.29907227 C10.57345016 100.64245096 5.15758321 98.82438141 -0.8125 95.375 C-8.36743201 87.17250239 -7.62830645 76.85333541 -7.6875 66.375 C-7.7167497 64.01085078 -7.7514692 61.64688309 -7.78999329 59.28286743 C-7.81212975 57.82150554 -7.82815846 56.36003282 -7.83683777 54.89852905 C-7.88278942 50.51434017 -8.33691238 46.3295535 -9 42 C-11.76854512 7.45735764 -11.76854512 7.45735764 -7.828125 1.11328125 C-5.03929176 -0.58504668 -3.21061658 -0.43997338 0 0 Z M-3 7 C-2.90546175 10.96561041 -2.79916536 14.9307259 -2.68261719 18.89575195 C-2.62613902 20.89713729 -2.57860232 22.89876858 -2.53125 24.90039062 C-2.14562511 37.6581473 -0.88891161 46.11108839 8.3125 55.3125 C12.3100104 57.82256467 17.20243932 60 22 60 C21.90632155 55.23077702 21.80019614 50.4620531 21.68261719 45.69335938 C21.64437642 44.07169141 21.60951497 42.44994004 21.578125 40.828125 C21.53236743 38.49448883 21.47439184 36.16142438 21.4140625 33.828125 C21.40251129 33.10506165 21.39096008 32.38199829 21.37905884 31.63702393 C21.27180893 27.96443485 21.09919354 25.08186423 19 22 C16.98694755 20.28693225 16.98694755 20.28693225 14.5625 18.75 C9.66217128 15.45692196 4.89996744 12.01301941 0.15234375 8.50390625 C-1.69900293 6.90453946 -1.69900293 6.90453946 -3 7 Z M0 57 C-1.52015843 61.56047528 -0.95414979 65.98650491 -0.75 70.75 C-0.72292969 71.72710937 -0.69585937 72.70421875 -0.66796875 73.7109375 C-0.37594563 80.70065219 0.34094523 86.11935733 5.25 91.4375 C10.61279528 94.48454277 16.33340378 92.88705224 22.06518555 91.47119141 C22.73277893 91.30859329 23.40037231 91.14599518 24.0881958 90.97846985 C26.2730771 90.44410501 28.45486489 89.8981456 30.63671875 89.3515625 C32.16398733 88.97463657 33.69139969 88.59829284 35.21894836 88.22250366 C38.41002486 87.43563646 41.59966919 86.64327799 44.78833008 85.84667969 C48.87162353 84.8268247 52.9576413 83.81843809 57.04471111 82.81383705 C60.19491229 82.03860762 63.34389494 81.25852416 66.49250221 80.4768486 C67.99886726 80.10325653 69.50553756 79.73089302 71.01251793 79.3597908 C73.11722699 78.84047089 75.22028253 78.31492308 77.32299805 77.78759766 C78.51877975 77.49003571 79.71456146 77.19247375 80.94657898 76.88589478 C83.52212263 76.13864746 85.67178516 75.3066986 88 74 C84.5675556 71.3475553 81.12821866 68.70419985 77.6875 66.0625 C76.71103516 65.30775391 75.73457031 64.55300781 74.72851562 63.77539062 C73.79072266 63.05673828 72.85292969 62.33808594 71.88671875 61.59765625 C71.02264404 60.93258057 70.15856934 60.26750488 69.26831055 59.58227539 C67.00501918 57.84423066 67.00501918 57.84423066 64 57 C61.65327769 57.46521007 59.32661402 58.03359035 57.015625 58.65234375 C55.58998627 59.02073429 54.16419965 59.38855285 52.73828125 59.75585938 C50.51209842 60.33897659 48.28767455 60.92732964 46.06591797 61.52709961 C32.23527793 65.23680751 19.37021268 67.66079686 6 61 C5.10539062 60.66742188 4.21078125 60.33484375 3.2890625 59.9921875 C1 59 1 59 0 57 Z " fill="#F8FDFD" transform="translate(56,209)"/>
<path d="M0 0 C2.97 0 5.94 0 9 0 C11.64 6.93 14.28 13.86 17 21 C16.96041741 14.4629715 16.96041741 14.4629715 16.90991211 7.92602539 C16.90741455 7.11641357 16.90491699 6.30680176 16.90234375 5.47265625 C16.89448853 4.22367554 16.89448853 4.22367554 16.88647461 2.94946289 C17 1 17 1 18 0 C19.8125 -0.1328125 19.8125 -0.1328125 22 -0.125 C22.721875 -0.12757813 23.44375 -0.13015625 24.1875 -0.1328125 C26 0 26 0 27 1 C27.09311889 2.50418739 27.11746028 4.01271356 27.11352539 5.51977539 C27.11344986 6.48069595 27.11337433 7.44161652 27.11329651 8.43165588 C27.10813522 9.476436 27.10297394 10.52121613 27.09765625 11.59765625 C27.0962413 12.66165146 27.09482635 13.72564667 27.09336853 14.82188416 C27.08775064 18.23545083 27.07519511 21.648953 27.0625 25.0625 C27.05748731 27.37044176 27.052924 29.67838455 27.04882812 31.98632812 C27.0377754 37.65757426 27.02101987 43.32878253 27 49 C23.04369799 50.36948916 21.66750453 49.77791742 17 49 C14.69 42.07 12.38 35.14 10 28 C10 34.93 10 41.86 10 49 C6.7 49 3.4 49 0 49 C0 32.83 0 16.66 0 0 Z " fill="#FBFEFD" transform="translate(265,213)"/>
<path d="M0 0 C0.81210937 -0.01224609 1.62421875 -0.02449219 2.4609375 -0.03710938 C10.71767264 -0.05728055 10.71767264 -0.05728055 14.25 2.1875 C16.50015924 6.40555993 16.54173912 10.48558994 16.515625 15.15625 C16.51753845 15.91417847 16.5194519 16.67210693 16.52142334 17.45300293 C16.52277977 19.04988946 16.5191213 20.64678722 16.51074219 22.24365234 C16.50003466 24.67961537 16.51065557 27.114841 16.5234375 29.55078125 C16.52211581 31.10677245 16.51955322 32.6627632 16.515625 34.21875 C16.51967346 34.94284058 16.52372192 35.66693115 16.52789307 36.41296387 C16.47994419 41.6168724 16.0009537 45.4365463 12.25 49.1875 C10.11108398 49.5222168 10.11108398 49.5222168 7.49609375 49.63671875 C6.55958984 49.67990234 5.62308594 49.72308594 4.65820312 49.76757812 C3.67787109 49.80302734 2.69753906 49.83847656 1.6875 49.875 C0.70330078 49.92205078 -0.28089844 49.96910156 -1.29492188 50.01757812 C-6.65974078 50.24311496 -6.65974078 50.24311496 -8.75 50.1875 C-10.35051664 48.58698336 -9.87731472 46.89903878 -9.87939453 44.68359375 C-9.88254669 43.72590088 -9.88569885 42.76820801 -9.88894653 41.78149414 C-9.8869223 40.73985107 -9.88489807 39.69820801 -9.8828125 38.625 C-9.88376923 37.56337646 -9.88472595 36.50175293 -9.88571167 35.40795898 C-9.88639364 33.15836528 -9.88453819 30.90876963 -9.88037109 28.65917969 C-9.8750231 25.20242929 -9.88031554 21.74580883 -9.88671875 18.2890625 C-9.88605797 16.10937471 -9.88477682 13.929687 -9.8828125 11.75 C-9.88483673 10.70835693 -9.88686096 9.66671387 -9.88894653 8.59350586 C-9.88579437 7.63581299 -9.88264221 6.67812012 -9.87939453 5.69140625 C-9.87859894 4.84392822 -9.87780334 3.9964502 -9.87698364 3.12329102 C-9.55705125 -1.75389026 -3.72114522 0.00289809 0 0 Z M0.25 9.1875 C-0.54585256 19.874663 -0.87825004 30.47149677 -0.75 41.1875 C1.24954746 41.23004356 3.25041636 41.22830783 5.25 41.1875 C7.13319268 39.30430732 6.38054285 36.06819863 6.3828125 33.5625 C6.38376923 32.90040527 6.38472595 32.23831055 6.38571167 31.55615234 C6.38639326 30.15397039 6.38454042 28.7517853 6.38037109 27.34960938 C6.37502246 25.19654287 6.3803167 23.04368498 6.38671875 20.890625 C6.38605796 19.53124954 6.38477679 18.1718742 6.3828125 16.8125 C6.38168457 15.56726563 6.38055664 14.32203125 6.37939453 13.0390625 C6.57572127 10.28844569 6.57572127 10.28844569 5.25 9.1875 C3.58382885 9.14686168 1.91611905 9.144779 0.25 9.1875 Z " fill="#FBFDFD" transform="translate(359.75,212.8125)"/>
<path d="M0 0 C1.00023193 0.00523682 2.00046387 0.01047363 3.03100586 0.01586914 C4.1105957 0.0190918 5.19018555 0.02231445 6.30249023 0.02563477 C8.00695312 0.03820312 8.00695312 0.03820312 9.74584961 0.05102539 C11.45611328 0.05779297 11.45611328 0.05779297 13.20092773 0.06469727 C16.02845312 0.07652792 18.85587601 0.09301129 21.68334961 0.11352539 C22.68334961 2.11352539 22.68334961 2.11352539 22.68334961 9.11352539 C14.76334961 9.60852539 14.76334961 9.60852539 6.68334961 10.11352539 C6.68334961 13.41352539 6.68334961 16.71352539 6.68334961 20.11352539 C7.46581055 20.10192383 8.24827148 20.09032227 9.05444336 20.07836914 C10.06635742 20.0693457 11.07827148 20.06032227 12.12084961 20.05102539 C13.13018555 20.03942383 14.13952148 20.02782227 15.17944336 20.01586914 C17.68334961 20.11352539 17.68334961 20.11352539 18.68334961 21.11352539 C18.81616211 22.92602539 18.81616211 22.92602539 18.80834961 25.11352539 C18.8122168 26.19633789 18.8122168 26.19633789 18.81616211 27.30102539 C18.68334961 29.11352539 18.68334961 29.11352539 17.68334961 30.11352539 C16.03994094 30.21207194 14.39220351 30.24324951 12.74584961 30.23852539 C11.84995117 30.24110352 10.95405273 30.24368164 10.03100586 30.24633789 C7.68334961 30.11352539 7.68334961 30.11352539 5.68334961 29.11352539 C5.82772461 29.62915039 5.97209961 30.14477539 6.12084961 30.67602539 C6.84144862 33.7986211 7.256014 36.93903231 7.68334961 40.11352539 C14.61334961 40.60852539 14.61334961 40.60852539 21.68334961 41.11352539 C22.80834961 46.73852539 22.80834961 46.73852539 21.68334961 50.11352539 C17.89169886 50.1424591 14.10007634 50.16030141 10.30834961 50.17602539 C9.22811523 50.1844043 8.14788086 50.1927832 7.03491211 50.20141602 C6.00366211 50.20463867 4.97241211 50.20786133 3.90991211 50.21118164 C2.95681152 50.21641846 2.00371094 50.22165527 1.02172852 50.22705078 C-1.31665039 50.11352539 -1.31665039 50.11352539 -3.31665039 49.11352539 C-3.34191929 42.29590645 -3.35948284 35.4782995 -3.37158203 28.66064453 C-3.37662373 26.33935088 -3.38345691 24.01806042 -3.39208984 21.69677734 C-3.40416264 18.36823744 -3.40988018 15.03973937 -3.41430664 11.71118164 C-3.41946793 10.66640152 -3.42462921 9.6216214 -3.4299469 8.54518127 C-3.43002243 7.58426071 -3.43009796 6.62334015 -3.43017578 5.63330078 C-3.43239639 4.78280655 -3.434617 3.93231232 -3.43690491 3.05604553 C-3.259183 0.18523133 -2.87654272 0.14096242 0 0 Z " fill="#F9FEFD" transform="translate(386.316650390625,212.886474609375)"/>
<path d="M0 0 C1.54300781 -0.03867188 1.54300781 -0.03867188 3.1171875 -0.078125 C7.48657798 0.39853578 10.0621613 2.1871613 13.125 5.25 C13.3203125 8.0703125 13.3203125 8.0703125 13.25 11.375 C13.23195313 12.47070312 13.21390625 13.56640625 13.1953125 14.6953125 C13.17210937 15.53835937 13.14890625 16.38140625 13.125 17.25 C9.47311918 18.32174763 6.86067172 18.01411467 3.125 17.25 C3.125 14.94 3.125 12.63 3.125 10.25 C1.475 10.25 -0.175 10.25 -1.875 10.25 C-1.875 20.15 -1.875 30.05 -1.875 40.25 C0.105 40.25 2.085 40.25 4.125 40.25 C4.125 37.61 4.125 34.97 4.125 32.25 C10.27734375 32.15234375 10.27734375 32.15234375 12.125 32.25 C13.76430993 33.88930993 13.33501367 35.74743674 13.375 38 C13.32058297 42.23243528 13.07045954 44.99983774 10.125 48.25 C4.87590339 50.80678888 -0.14340178 50.82660222 -5.875 50.25 C-8.99437969 48.87747293 -10.3647715 48.270457 -11.875 45.25 C-12.96765652 37.86081203 -13.12576613 30.49112484 -13.17016602 23.02832031 C-13.1817841 21.66884027 -13.20238768 20.30940919 -13.23168945 18.95019531 C-13.27436362 16.96191309 -13.28793181 14.97307362 -13.30078125 12.984375 C-13.31536377 11.81100586 -13.32994629 10.63763672 -13.3449707 9.42871094 C-12.77707465 5.58766857 -11.60955114 3.96014378 -8.875 1.25 C-5.71490467 0.19663489 -3.3196864 0.04967112 0 0 Z " fill="#F9FDFD" transform="translate(311.875,212.75)"/>
<path d="M0 0 C2.97 0 5.94 0 9 0 C13.40774487 17.85649203 13.40774487 17.85649203 14 26 C14.66 26 15.32 26 16 26 C16.02578125 25.37996094 16.0515625 24.75992188 16.078125 24.12109375 C16.61553215 15.73021387 18.66918889 8.0331676 21 0 C23.97 0 26.94 0 30 0 C28.54235429 16.61716106 23.95252665 32.84277677 20 49 C16.30110572 49.80545437 13.62365443 50.37111249 10 49 C7.70683055 44.57932733 7.03689605 39.66077831 6.125 34.8125 C4.6466588 27.1395417 3.04282917 19.51218465 1.21923828 11.91333008 C0.28040126 7.86063632 -0.18252128 4.15887776 0 0 Z " fill="#F9FDFD" transform="translate(415,213)"/>
<path d="M0 0 C2.05078125 0.03255208 4.1015625 0.06510417 6.15234375 0.09765625 C8.04687799 5.30335845 9.17665584 10.55890239 10.27734375 15.97265625 C10.45910156 16.85179687 10.64085937 17.7309375 10.828125 18.63671875 C11.27276675 20.78972093 11.71408204 22.94334796 12.15234375 25.09765625 C13.98001823 21.00114447 14.84203248 17.00152185 15.65234375 12.59765625 C16.46265502 8.19379065 17.32466927 4.19416803 19.15234375 0.09765625 C21.79234375 0.09765625 24.43234375 0.09765625 27.15234375 0.09765625 C26.71836408 9.47768482 24.77302833 18.48427337 22.76879883 27.62573242 C22.20965849 30.18387954 21.66582381 32.74497745 21.12304688 35.30664062 C20.77043726 36.9363942 20.41695398 38.56595906 20.0625 40.1953125 C19.90096939 40.95981216 19.73943878 41.72431183 19.57301331 42.51197815 C18.38207651 47.86792349 18.38207651 47.86792349 16.15234375 50.09765625 C13.4639499 50.36757531 10.86092439 50.18502982 8.15234375 50.09765625 C6.67971124 47.36989126 5.76540929 44.90910195 5.1484375 41.875 C4.98327637 41.08593262 4.81811523 40.29686523 4.64794922 39.48388672 C4.40262451 38.30270264 4.40262451 38.30270264 4.15234375 37.09765625 C3.83452211 35.70225568 3.51302058 34.30768716 3.1875 32.9140625 C1.36587219 24.98771951 -0.29324578 17.05355788 -1.66015625 9.03515625 C-1.79607178 8.255354 -1.9319873 7.47555176 -2.07202148 6.67211914 C-2.3768323 4.82099158 -2.61890755 2.95971342 -2.84765625 1.09765625 C-1.84765625 0.09765625 -1.84765625 0.09765625 0 0 Z " fill="#F9FDFD" transform="translate(230.84765625,212.90234375)"/>
<path d="M0 0 C0.99 0 1.98 0 3 0 C3.66 1.32 4.32 2.64 5 4 C5.6496875 3.01 5.6496875 3.01 6.3125 2 C6.869375 1.34 7.42625 0.68 8 0 C8.99 0 9.98 0 11 0 C11.33 3.63 11.66 7.26 12 11 C5.84765625 10.4140625 5.84765625 10.4140625 4 10 C3.67 9.34 3.34 8.68 3 8 C2.67 8.66 2.34 9.32 2 10 C1.34 10 0.68 10 0 10 C0 6.7 0 3.4 0 0 Z " fill="#E5F9FB" transform="translate(422,282)"/>
<path d="M0 0 C0.99 0 1.98 0 3 0 C3.33 0.99 3.66 1.98 4 3 C4.66 2.01 5.32 1.02 6 0 C7.32 0 8.64 0 10 0 C10.33 1.32 10.66 2.64 11 4 C11.33 2.68 11.66 1.36 12 0 C12.99 0 13.98 0 15 0 C14.49287967 3.71888239 13.88391785 6.73454239 12 10 C11.01 9.67 10.02 9.34 9 9 C8.67 8.01 8.34 7.02 8 6 C7.34 7.32 6.68 8.64 6 10 C5.01 10 4.02 10 3 10 C2.01 6.7 1.02 3.4 0 0 Z " fill="#E8FBFD" transform="translate(234,282)"/>
<path d="M0 0 C0.33 0.66 0.66 1.32 1 2 C0.0625 4.625 0.0625 4.625 -1 7 C-2.32 7 -3.64 7 -5 7 C-5 7.66 -5 8.32 -5 9 C-3.35 9.33 -1.7 9.66 0 10 C-0.33 10.66 -0.66 11.32 -1 12 C-3.97 11.505 -3.97 11.505 -7 11 C-7.33 10.01 -7.66 9.02 -8 8 C-8.99 8 -9.98 8 -11 8 C-10.67 5.69 -10.34 3.38 -10 1 C-6.52674819 -0.1577506 -3.63932552 -0.06866652 0 0 Z M-5 3 C-4.67 3.66 -4.34 4.32 -4 5 C-3.67 4.34 -3.34 3.68 -3 3 C-3.66 3 -4.32 3 -5 3 Z " fill="#E3FCFC" transform="translate(446,281)"/>
<path d="M0 0 C0 2.64 0 5.28 0 8 C-3.69418201 9.231394 -6.2056261 8.64432764 -10 8 C-10 5.36 -10 2.72 -10 0 C-2.25 -1.125 -2.25 -1.125 0 0 Z " fill="#F7FDFD" transform="translate(461,254)"/>
<path d="M0 0 C-0.875 7.625 -0.875 7.625 -2 11 C-4.46800047 9.84826645 -6.04783565 8.95216435 -8 7 C-8 8.32 -8 9.64 -8 11 C-8.99 11 -9.98 11 -11 11 C-11 7.7 -11 4.4 -11 1 C-10.01 1 -9.02 1 -8 1 C-7.34 1.99 -6.68 2.98 -6 4 C-5.38125 3.34 -4.7625 2.68 -4.125 2 C-2 0 -2 0 0 0 Z " fill="#EAFBFC" transform="translate(462,281)"/>
<path d="M0 0 C2.97 0 5.94 0 9 0 C8.67 0.66 8.34 1.32 8 2 C5 3 5 3 2 2 C1.9494037 8.37203593 1.91431043 14.7440203 1.89013672 21.11621094 C1.88006211 23.28517594 1.86640202 25.45412731 1.84912109 27.62304688 C1.82493677 30.73571126 1.81353168 33.84819651 1.8046875 36.9609375 C1.79436493 37.934935 1.78404236 38.9089325 1.77340698 39.91244507 C1.77325592 40.81322784 1.77310486 41.71401062 1.77294922 42.64208984 C1.768508 43.43706879 1.76406677 44.23204773 1.75949097 45.05111694 C1.82631697 47.23643491 1.82631697 47.23643491 4 49 C2.68 49 1.36 49 0 49 C0 32.83 0 16.66 0 0 Z " fill="#EBFEFE" transform="translate(265,213)"/>
<path d="M0 0 C2.25 1.25 2.25 1.25 3.25 2.25 C3.625 5.125 3.625 5.125 3.25 8.25 C1.0625 10.25 1.0625 10.25 -1.75 11.25 C-4.18028072 10.58719617 -5.9510972 10.0489028 -7.75 8.25 C-8.125 5.375 -8.125 5.375 -7.75 2.25 C-4.93014202 -0.32815587 -3.73790549 -1.01942877 0 0 Z M-2.75 1.25 C-4.39555699 2.47809091 -4.39555699 2.47809091 -5.75 4.25 C-5.52242269 6.41299211 -5.52242269 6.41299211 -4.75 8.25 C-3.1 7.92 -1.45 7.59 0.25 7.25 C0.58 5.93 0.91 4.61 1.25 3.25 C-0.07 2.59 -1.39 1.93 -2.75 1.25 Z " fill="#E6FBFE" transform="translate(400.75,281.75)"/>
<path d="M0 0 C0.19412181 1.47831221 0.38012131 2.95769316 0.5625 4.4375 C0.66691406 5.26121094 0.77132813 6.08492188 0.87890625 6.93359375 C0.91886719 7.61550781 0.95882813 8.29742187 1 9 C0 10 0 10 -3.5625 10.0625 C-4.696875 10.041875 -5.83125 10.02125 -7 10 C-8 2.25 -8 2.25 -8 0 C-5.13822943 -1.43088528 -3.06624227 -0.59991697 0 0 Z M-5 2 C-5 2.66 -5 3.32 -5 4 C-4.01 4 -3.02 4 -2 4 C-2 3.34 -2 2.68 -2 2 C-2.99 2 -3.98 2 -5 2 Z M-5 6 C-5 6.66 -5 7.32 -5 8 C-4.01 8 -3.02 8 -2 8 C-2 7.34 -2 6.68 -2 6 C-2.99 6 -3.98 6 -5 6 Z " fill="#E9FBFE" transform="translate(273,282)"/>
<path d="M0 0 C2.625 0.9375 2.625 0.9375 5 2 C5 2.66 5 3.32 5 4 C3.68 4 2.36 4 1 4 C2.32 4.99 3.64 5.98 5 7 C4.67 8.32 4.34 9.64 4 11 C2.3125 11.6875 2.3125 11.6875 0 12 C-2.75 10.5625 -2.75 10.5625 -5 9 C-4.67 8.01 -4.34 7.02 -4 6 C-2 7 0 8 2 9 C2 8.34 2 7.68 2 7 C0.68 6.34 -0.64 5.68 -2 5 C-2 3.68 -2 2.36 -2 1 C-1.34 0.67 -0.68 0.34 0 0 Z " fill="#E9FDFE" transform="translate(281,281)"/>
<path d="M0 0 C2.64 0 5.28 0 8 0 C7.67 0.66 7.34 1.32 7 2 C6.34 2 5.68 2 5 2 C6.31201173 3.56249809 6.31201173 3.56249809 8 5 C8.99 5 9.98 5 11 5 C10.67 5.99 10.34 6.98 10 8 C7.69 7.34 5.38 6.68 3 6 C3 6.66 3 7.32 3 8 C4.65 8.33 6.3 8.66 8 9 C7.34 9.66 6.68 10.32 6 11 C3.375 10.625 3.375 10.625 1 10 C0.67 6.7 0.34 3.4 0 0 Z M3 2 C4 4 4 4 4 4 Z " fill="#E9FDFE" transform="translate(370,282)"/>
<path d="M0 0 C2.31 0.33 4.62 0.66 7 1 C6.67 1.66 6.34 2.32 6 3 C4.68 3 3.36 3 2 3 C2 3.66 2 4.32 2 5 C3.32 4.67 4.64 4.34 6 4 C6.33 5.32 6.66 6.64 7 8 C5.35 7.67 3.7 7.34 2 7 C2 7.99 2 8.98 2 10 C2.99 9.67 3.98 9.34 5 9 C5.66 9.33 6.32 9.66 7 10 C7 10.66 7 11.32 7 12 C4.69 11.67 2.38 11.34 0 11 C-1.28571429 3.57142857 -1.28571429 3.57142857 0 0 Z " fill="#EBFAFA" transform="translate(254,281)"/>
<path d="M0 0 C2.31 0 4.62 0 7 0 C7.33 1.65 7.66 3.3 8 5 C6.35 5.33 4.7 5.66 3 6 C3 7.32 3 8.64 3 10 C2.01 9.67 1.02 9.34 0 9 C0 6.03 0 3.06 0 0 Z M3 2 C3 2.66 3 3.32 3 4 C3.66 4 4.32 4 5 4 C5 3.34 5 2.68 5 2 C4.34 2 3.68 2 3 2 Z " fill="#E2FBFC" transform="translate(409,282)"/>
<path d="M0 0 C2.31 0 4.62 0 7 0 C6.979375 0.78375 6.95875 1.5675 6.9375 2.375 C6.81315937 4.98114961 6.81315937 4.98114961 8 7 C5.03 6.505 5.03 6.505 2 6 C3.25541557 8.51083114 4.50063488 8.87125446 7 10 C4.69 10 2.38 10 0 10 C0 6.7 0 3.4 0 0 Z M2 2 C2.66 2.66 3.32 3.32 4 4 C4 3.34 4 2.68 4 2 C3.34 2 2.68 2 2 2 Z " fill="#E9FDFE" transform="translate(345,282)"/>
<path d="M0 0 C2.8125 -0.25 2.8125 -0.25 6 0 C8 1.6875 8 1.6875 9 4 C8.33228817 6.39263407 7.77902615 8.22097385 6 10 C4.00041636 10.04080783 1.99954746 10.04254356 0 10 C0 6.7 0 3.4 0 0 Z M2 2 C2 3.98 2 5.96 2 8 C3.98491642 7.73323796 3.98491642 7.73323796 6 7 C6.33 6.01 6.66 5.02 7 4 C6.34 3.34 5.68 2.68 5 2 C4.01 2 3.02 2 2 2 Z " fill="#E3FEFE" transform="translate(331,282)"/>
<path d="M0 0 C0.99 0 1.98 0 3 0 C3.66 1.65 4.32 3.3 5 5 C5.66 3.35 6.32 1.7 7 0 C7.99 0.33 8.98 0.66 10 1 C8.68 3.97 7.36 6.94 6 10 C5.01 9.67 4.02 9.34 3 9 C2.05078125 6.93359375 2.05078125 6.93359375 1.3125 4.4375 C1.06113281 3.61121094 0.80976563 2.78492188 0.55078125 1.93359375 C0.36902344 1.29550781 0.18726563 0.65742188 0 0 Z " fill="#E5FBFE" transform="translate(356,282)"/>
<path d="M0 0 C2.31 0 4.62 0 7 0 C6.67 0.66 6.34 1.32 6 2 C5.01 2 4.02 2 3 2 C3.99 2.66 4.98 3.32 6 4 C6 4.66 6 5.32 6 6 C5.01 6 4.02 6 3 6 C3 6.66 3 7.32 3 8 C4.32 8.66 5.64 9.32 7 10 C5.02 10 3.04 10 1 10 C0.67 6.7 0.34 3.4 0 0 Z " fill="#EAFDFE" transform="translate(310,282)"/>
<path d="M0 0 C2.97 0.33 5.94 0.66 9 1 C8.67 1.66 8.34 2.32 8 3 C7.34 3 6.68 3 6 3 C6 5.64 6 8.28 6 11 C5.34 11 4.68 11 4 11 C3.67 8.36 3.34 5.72 3 3 C1.68 3 0.36 3 -1 3 C-0.67 2.01 -0.34 1.02 0 0 Z " fill="#E7FCFD" transform="translate(297,281)"/>
<path d="M0 0 C0.99 0 1.98 0 3 0 C3 2.31 3 4.62 3 7 C4.32 7.33 5.64 7.66 7 8 C6.67 8.66 6.34 9.32 6 10 C4.02 9.34 2.04 8.68 0 8 C0 5.36 0 2.72 0 0 Z " fill="#EAFCFD" transform="translate(382,283)"/>
<path d="M0 0 C2.64 0 5.28 0 8 0 C7.67 0.66 7.34 1.32 7 2 C6.34 2 5.68 2 5 2 C5 4.64 5 7.28 5 10 C4.34 10 3.68 10 3 10 C3 7.36 3 4.72 3 2 C2.01 2 1.02 2 0 2 C0 1.34 0 0.68 0 0 Z " fill="#E0FCFE" transform="translate(465,282)"/>
<path d="M0 0 C1.65 0 3.3 0 5 0 C5.33 0.66 5.66 1.32 6 2 C5.67 2.99 5.34 3.98 5 5 C2.9375 5.6875 2.9375 5.6875 1 6 C0.67 4.02 0.34 2.04 0 0 Z " fill="#F7FEFE" transform="translate(441,281)"/>
<path d="M0 0 C2.31 0 4.62 0 7 0 C7.33 1.65 7.66 3.3 8 5 C7.01 5 6.02 5 5 5 C5 4.01 5 3.02 5 2 C4.01 2.33 3.02 2.66 2 3 C2 2.34 2 1.68 2 1 C1.34 0.67 0.68 0.34 0 0 Z " fill="#EFFDFE" transform="translate(409,282)"/>
<path d="M0 0 C0.99 0.33 1.98 0.66 3 1 C2.67 3.97 2.34 6.94 2 10 C1.34 10 0.68 10 0 10 C0 6.7 0 3.4 0 0 Z " fill="#DFFCFE" transform="translate(291,282)"/>
<path d="M0 0 C0.33 0 0.66 0 1 0 C1 1.65 1 3.3 1 5 C0.34 4.67 -0.32 4.34 -1 4 C-0.67 2.68 -0.34 1.36 0 0 Z " fill="#DEFFFF" transform="translate(263,285)"/>
<path d="M0 0 C0.33 0 0.66 0 1 0 C1 1.98 1 3.96 1 6 C0.67 6 0.34 6 0 6 C0 4.02 0 2.04 0 0 Z " fill="#C8FFFF" transform="translate(465,285)"/>
<path d="M0 0 C0.33 1.32 0.66 2.64 1 4 C0.34 3.67 -0.32 3.34 -1 3 C-0.67 2.01 -0.34 1.02 0 0 Z " fill="#DDFFFF" transform="translate(448,285)"/>
<path d="" fill="#CCFFFF" transform="translate(0,0)"/>
<path d="" fill="#FFFFFF" transform="translate(0,0)"/>
<path d="" fill="#FFFFFF" transform="translate(0,0)"/>
<path d="" fill="#BFFFFF" transform="translate(0,0)"/>
<path d="" fill="#FFFFFF" transform="translate(0,0)"/>
<path d="" fill="#FFFFFF" transform="translate(0,0)"/>
</svg>